PathFileType	4	(X/Y/Z)	C:\Users\86182\Documents\cortex\Trimmed_M4_H10.trc
DataRate	CameraRate	NumFrames	NumMarkers	Units	OrigDataRate	OrigDataStartFrame	OrigNumFrames
100.00	100.00	       155	2	mm	100.00	181	       901
Frame#	Time	gripper			box			
		X1	Y1	Z1	X2	Y2	Z2	

181	1.800	276.63278	150.53627	232.30504	280.16867	146.97128	95.46042	
182	1.810	276.52121	150.56767	232.75304	280.41415	146.93411	95.71817	
183	1.820	276.46375	150.58334	233.17766	280.68637	146.88860	95.96185	
184	1.830	276.44394	150.58873	233.58693	280.91846	146.84647	96.22839	
185	1.840	276.44934	150.58850	233.98871	281.05145	146.82161	96.55253	
186	1.850	276.47021	150.58611	234.38974	281.08475	146.81879	96.93868	
187	1.860	276.49814	150.58385	234.79517	281.06836	146.83154	97.36305	
188	1.870	276.52625	150.58345	235.20901	281.03543	146.85268	97.80852	
189	1.880	276.55099	150.58643	235.63382	280.96243	146.88341	98.28691	
190	1.890	276.57269	150.59398	236.06982	280.80615	146.93047	98.82124	
191	1.900	276.59302	150.60651	236.51517	280.56848	146.99559	99.41045	
192	1.910	276.61279	150.62370	236.96716	280.30566	147.07120	100.02222	
193	1.920	276.63116	150.64534	237.42264	280.08304	147.14531	100.61704	
194	1.930	276.64691	150.67137	237.87881	279.94272	147.20720	101.16640	
195	1.940	276.65897	150.70068	238.33391	279.90283	147.24986	101.65488	
196	1.950	276.66672	150.73070	238.78650	279.96246	147.27112	102.07980	
197	1.960	276.66977	150.75844	239.23474	280.10135	147.27368	102.45097	
198	1.970	276.66782	150.78235	239.67728	280.27917	147.26523	102.78832	
199	1.980	276.66061	150.80251	240.11360	280.44708	147.25587	103.11465	
200	1.990	276.64853	150.81961	240.54324	280.58026	147.25107	103.44142	
201	2.000	276.63269	150.83443	240.96588	280.69235	147.24808	103.76488	
202	2.010	276.61407	150.84749	241.38287	280.79660	147.24333	104.08615	
203	2.020	276.59290	150.85909	241.79742	280.86838	147.24071	104.42706	
204	2.030	276.57034	150.86919	242.21255	280.87231	147.24754	104.81206	
205	2.040	276.54993	150.87701	242.62943	280.81882	147.26395	105.23714	
206	2.050	276.53558	150.88077	243.04800	280.76321	147.28113	105.67195	
207	2.060	276.52863	150.87895	243.46841	280.74530	147.29141	106.09541	
208	2.070	276.52789	150.87256	243.89182	280.75195	147.29564	106.51708	
209	2.080	276.53146	150.86424	244.32028	280.74908	147.29950	106.95802	
210	2.090	276.53757	150.85561	244.75458	280.73633	147.30487	107.41776	
211	2.100	276.54410	150.84587	245.19290	280.74817	147.30800	107.87228	
212	2.110	276.54861	150.83328	245.63321	280.80154	147.30598	108.30554	
213	2.120	276.54831	150.81737	246.07515	280.86539	147.30173	108.73019	
214	2.130	276.54028	150.79930	246.51819	280.89438	147.30084	109.16942	
215	2.140	276.52237	150.78024	246.96017	280.88321	147.30452	109.62454	
216	2.150	276.49503	150.76007	247.39871	280.86597	147.30846	110.07355	
217	2.160	276.46100	150.73848	247.83232	280.86124	147.30968	110.50203	
218	2.170	276.42236	150.71649	248.26048	280.84048	147.31157	110.92287	
219	2.180	276.37967	150.69650	248.68340	280.76239	147.32001	111.36010	
220	2.190	276.33417	150.68077	249.10141	280.62723	147.33557	111.81951	
221	2.200	276.28870	150.66965	249.51425	280.47699	147.35297	112.28588	
222	2.210	276.24701	150.66150	249.92191	280.34348	147.36838	112.74660	
223	2.220	276.21365	150.65454	250.32655	280.22375	147.38338	113.20300	
224	2.230	276.19257	150.64902	250.73221	280.11465	147.39885	113.65533	
225	2.240	276.18378	150.64693	251.14226	280.04263	147.40956	114.09201	
226	2.250	276.18326	150.64914	251.55807	280.04059	147.40877	114.50200	
227	2.260	276.18716	150.65413	251.97989	280.11121	147.39584	114.88830	
228	2.270	276.19495	150.65971	252.40817	280.22665	147.37643	115.26331	
229	2.280	276.20770	150.66490	252.84360	280.36417	147.35565	115.63257	
230	2.290	276.22504	150.66960	253.28566	280.52609	147.33401	115.98985	
231	2.300	276.24384	150.67409	253.73169	280.70847	147.31250	116.33652	
232	2.310	276.25977	150.67860	254.17722	280.86911	147.29784	116.69609	
233	2.320	276.27029	150.68323	254.61882	280.96011	147.29691	117.09264	
234	2.330	276.27576	150.68819	255.05646	280.98703	147.30733	117.51826	
235	2.340	276.27814	150.69405	255.49184	281.00348	147.31853	117.93947	
236	2.350	276.27875	150.70183	255.92471	281.04343	147.32327	118.33800	
237	2.360	276.27722	150.71240	256.35315	281.08304	147.32484	118.73109	
238	2.370	276.27271	150.72557	256.77673	281.08167	147.33087	119.14483	
239	2.380	276.26605	150.73993	257.19687	281.04660	147.34094	119.57538	
240	2.390	276.26105	150.75356	257.61493	281.03073	147.34497	119.99152	
241	2.400	276.26147	150.76494	258.03125	281.06516	147.33600	120.37503	
242	2.410	276.26697	150.77370	258.44556	281.12039	147.31975	120.74420	
243	2.420	276.27322	150.78085	258.85794	281.14474	147.30722	121.13224	
244	2.430	276.27722	150.78793	259.27020	281.12582	147.30099	121.55083	
245	2.440	276.28040	150.79518	259.68576	281.08737	147.29581	121.98868	
246	2.450	276.28574	150.80107	260.10736	281.03561	147.29085	122.44009	
247	2.460	276.29407	150.80415	260.53516	280.95602	147.29089	122.91013	
248	2.470	276.30417	150.80484	260.96771	280.86481	147.29562	123.39112	
249	2.480	276.31482	150.80518	261.40411	280.81384	147.29726	123.85918	
250	2.490	276.32574	150.80699	261.84402	280.83075	147.29089	124.30132	
251	2.500	276.33798	150.81102	262.28674	280.88013	147.28133	124.73224	
252	2.510	276.35281	150.81714	262.73065	280.90347	147.27731	125.17574	
253	2.520	276.36963	150.82532	263.17325	280.88644	147.28090	125.63459	
254	2.530	276.38522	150.83597	263.61200	280.85999	147.28644	126.09196	
255	2.540	276.39587	150.84904	264.04590	280.83453	147.29073	126.54301	
256	2.550	276.39990	150.86288	264.47531	280.76138	147.30029	127.01107	
257	2.560	276.39832	150.87511	264.90021	280.57657	147.32527	127.52505	
258	2.570	276.39340	150.88452	265.32031	280.27341	147.36748	128.08600	
259	2.580	276.38684	150.89207	265.73608	279.91064	147.41843	128.66583	
260	2.590	276.37958	150.89981	266.14816	279.55844	147.46719	129.23380	
261	2.600	276.37299	150.90878	266.55719	279.25998	147.50633	129.77267	
262	2.610	276.36926	150.91821	266.96429	279.03143	147.53290	130.27655	
263	2.620	276.36951	150.92644	267.37140	278.87143	147.54823	130.74667	
264	2.630	276.37292	150.93230	267.77991	278.76865	147.55643	131.19092	
265	2.640	276.37836	150.93553	268.19064	278.70834	147.56169	131.62106	
266	2.650	276.38443	150.93637	268.60461	278.67969	147.56558	132.04651	
267	2.660	276.38947	150.93489	269.02240	278.68079	147.56639	132.46899	
268	2.670	276.39218	150.93074	269.44376	278.71753	147.56075	132.88255	
269	2.680	276.39236	150.92355	269.86926	278.79935	147.54584	133.27856	
270	2.690	276.38989	150.91319	270.30084	278.93658	147.52051	133.64999	
271	2.700	276.38416	150.90036	270.73996	279.13962	147.48518	133.99236	
272	2.710	276.37427	150.88712	271.18652	279.41302	147.44128	134.30441	
273	2.720	276.35989	150.87617	271.63928	279.74219	147.39180	134.59256	
274	2.730	276.34100	150.86943	272.09549	280.07822	147.34421	134.87781	
275	2.740	276.31747	150.86766	272.55121	280.34012	147.31210	135.19714	
276	2.750	276.28903	150.87144	273.00369	280.45660	147.30792	135.58517	
277	2.760	276.25516	150.88202	273.45190	280.41705	147.33260	136.04755	
278	2.770	276.21530	150.90031	273.89520	280.26093	147.37813	136.56357	
279	2.780	276.17020	150.92517	274.33356	280.02527	147.43825	137.11218	
280	2.790	276.12289	150.95309	274.76779	279.73654	147.50883	137.67775	
281	2.800	276.07712	150.97977	275.19867	279.43390	147.58269	138.24069	
282	2.810	276.03464	151.00212	275.62680	279.15988	147.65227	138.78214	
283	2.820	275.99506	151.01923	276.05322	278.93884	147.71373	139.29408	
284	2.830	275.95721	151.03171	276.47815	278.77588	147.76534	139.77817	
285	2.840	275.91989	151.03987	276.90051	278.66486	147.80545	140.23914	
286	2.850	275.88297	151.04326	277.32037	278.59561	147.83412	140.68164	
287	2.860	275.84888	151.04253	277.74017	278.55829	147.85426	141.11147	
288	2.870	275.82162	151.03978	278.16266	278.54477	147.86920	141.53601	
289	2.880	275.80365	151.03613	278.58832	278.55045	147.87947	141.95993	
290	2.890	275.79599	151.03088	279.01581	278.57843	147.88249	142.38037	
291	2.900	275.79999	151.02394	279.44348	278.64072	147.87471	142.78815	
292	2.910	275.81635	151.01712	279.87070	278.75375	147.85358	143.17316	
293	2.920	275.84277	151.01263	280.29776	278.93207	147.81847	143.52716	
294	2.930	275.87515	151.01137	280.72491	279.18491	147.77016	143.84418	
295	2.940	275.90979	151.01256	281.15189	279.51361	147.71002	144.12289	
296	2.950	275.94382	151.01456	281.57861	279.90170	147.64142	144.37085	
297	2.960	275.97491	151.01625	282.00558	280.29739	147.57347	144.61139	
298	2.970	276.00095	151.01781	282.43314	280.60666	147.52313	144.88882	
299	2.980	276.01987	151.01961	282.86026	280.72699	147.50911	145.25461	
300	2.990	276.03085	151.02151	283.28506	280.61206	147.53981	145.73302	
301	3.000	276.03522	151.02390	283.70639	280.30573	147.60652	146.30069	
302	3.010	276.03482	151.02827	284.12488	279.90771	147.68956	146.90508	
303	3.020	276.03009	151.03613	284.54181	279.51218	147.77057	147.50015	
304	3.030	276.02048	151.04724	284.95761	279.17661	147.83929	148.06210	
305	3.040	276.00662	151.05949	285.37152	278.92453	147.89236	148.58322	
306	3.050	275.99088	151.07016	285.78278	278.75513	147.93050	149.06485	
307	3.060	275.97620	151.07755	286.19122	278.65213	147.95686	149.51428	
308	3.070	275.96390	151.08205	286.59711	278.59460	147.97548	149.94083	
309	3.080	275.95364	151.08543	286.99988	278.56595	147.98903	150.35199	
310	3.090	275.94583	151.08920	287.39801	278.55719	147.99728	150.75224	
311	3.100	275.94302	151.09348	287.79028	278.56357	147.99849	151.14465	
312	3.110	275.94830	151.09721	288.17694	278.57913	147.99266	151.53168	
313	3.120	275.96289	151.09996	288.55865	278.59482	147.98268	151.91400	
314	3.130	275.98520	151.10295	288.93472	278.60391	147.97206	152.28929	
315	3.140	276.01193	151.10764	289.30179	278.60812	147.96198	152.65332	
316	3.150	276.03970	151.11342	289.65506	278.61597	147.95113	153.00162	
317	3.160	276.06680	151.11784	289.99023	278.63422	147.93822	153.33133	
318	3.170	276.09399	151.11897	290.30518	278.66199	147.92395	153.64267	
319	3.180	276.12296	151.11691	290.60068	278.69266	147.91127	153.93747	
320	3.190	276.15399	151.11351	290.87915	278.71823	147.90398	154.21689	
321	3.200	276.18491	151.11099	291.14182	278.73279	147.90547	154.48016	
322	3.210	276.21167	151.11154	291.38684	278.73492	147.91740	154.72397	
323	3.220	276.22916	151.11694	291.61017	278.72754	147.93910	154.94241	
324	3.230	276.23398	151.12756	291.80701	278.71509	147.96758	155.12912	
325	3.240	276.22711	151.14207	291.97345	278.70135	147.99883	155.28049	
326	3.250	276.21304	151.15862	292.10803	278.68872	148.02968	155.39735	
327	3.260	276.19690	151.17572	292.21259	278.67761	148.05843	155.48495	
328	3.270	276.18295	151.19231	292.29156	278.66736	148.08374	155.55084	
329	3.280	276.17419	151.20775	292.35013	278.65683	148.10382	155.60236	
330	3.290	276.17133	151.22159	292.39288	278.64456	148.11687	155.64465	
331	3.300	276.17249	151.23323	292.42380	278.62860	148.12180	155.68097	
332	3.310	276.17505	151.24220	292.44601	278.60727	148.11856	155.71341	
333	3.320	276.17737	151.24831	292.46164	278.58063	148.10838	155.74329	
334	3.330	276.17917	151.25175	292.47195	278.55121	148.09370	155.77069	
335	3.340	276.18082	151.25310	292.47800	278.52341	148.07755	155.79462	
